<svg width="148" height="33" fill="none" xmlns="http://www.w3.org/2000/svg"><path d="M23.144 14.264c1.543 2.204 2.094 5.181 1.764 8.047-.882 6.725-7.166 11.465-14 10.583C4.071 32.012-.779 25.73.103 19.004c.33-2.095 1.102-4.079 2.315-5.733 0 0-.331 6.284 3.417 6.725 1.654.22 3.087-.882 3.307-2.535.11-.772-.11-1.654-.55-2.205-3.418-4.52-3.088-6.615-2.977-7.938C6.497 1.035 12.78.153 12.78.153c-.661 1.874-.992 6.394 3.418 8.599 4.41 2.204 5.732 3.748 6.945 5.512Z" fill="#FF6436"/><path fill-rule="evenodd" clip-rule="evenodd" d="M119.57 16.167c-.741 0-1.482-.635-1.482-1.482 0-.846.635-1.481 1.482-1.481s1.482.635 1.482 1.481c0 .847-.635 1.482-1.482 1.482ZM46.537 26.434h-2.752v-5.398h-6.033v5.398H35V13.627h2.752v5.08h6.033v-5.08h2.752v12.807Zm2.435 3.599.317-2.223c.212.106.53.106.741.106.635 0 1.059-.212 1.27-.635l.318-.741-3.599-9.42h2.646l2.435 6.456 2.434-6.456h2.646l-4.34 10.796c-.74 1.8-1.905 2.223-3.492 2.223-.424 0-1.059 0-1.376-.106ZM61.99 25.27c.741.953 1.8 1.376 2.858 1.376 2.329 0 4.128-1.8 4.128-4.869 0-3.07-1.8-4.869-4.128-4.869-1.164 0-2.117.423-2.858 1.376V17.12h-2.434v12.913h2.434V25.27Zm2.117-.847c1.376 0 2.329-1.058 2.329-2.752 0-1.588-.953-2.646-2.329-2.646-.74 0-1.693.423-2.117 1.058v3.282c.424.635 1.27 1.058 2.117 1.058Zm6.35-2.646c0 2.964 2.117 4.869 4.975 4.869 1.482 0 2.858-.424 3.705-1.376l-1.059-1.588c-.529.635-1.693.953-2.434.953-1.588 0-2.54-.953-2.646-2.117h6.88v-.53c0-2.963-1.906-5.08-4.657-5.08-2.752 0-4.764 2.223-4.764 4.869Zm7.093-.847c-.106-.847-.635-2.011-2.329-2.011-1.482 0-2.117 1.164-2.329 2.01h4.658Zm13.442 5.505h3.07l-4.87-12.808h-3.387l-4.974 12.807h3.07l.846-2.116h5.504l.74 2.116Zm-1.588-4.552-2.011-5.504-2.011 5.504h4.022Zm12.172 4.551h2.435V17.12h-2.435v6.245c-.423.529-1.164 1.058-2.116 1.058-1.059 0-1.694-.423-1.694-1.693v-5.61h-2.434v6.562c0 1.8.952 2.964 2.963 2.964 1.482 0 2.646-.635 3.281-1.376v1.164Zm13.972 0h-2.435V25.27c-.741.953-1.799 1.376-2.858 1.376-2.328 0-4.128-1.8-4.128-4.869 0-3.07 1.8-4.869 4.128-4.869 1.059 0 2.117.53 2.858 1.377v-4.658h2.435v12.807Zm-2.435-3.07c-.423.636-1.27 1.059-2.117 1.059-1.376 0-2.328-1.058-2.328-2.646 0-1.694.952-2.752 2.328-2.752.847 0 1.694.423 2.117 1.058v3.282Zm5.292 3.07h2.435V17.12h-2.435v9.314Zm8.256.212c-1.693 0-2.646-.847-2.646-2.54v-4.87h-1.588V17.12h1.588v-2.54h2.435v2.54h1.905v2.116h-1.905v4.234c0 .53.317 1.059.846 1.059.318 0 .741-.106.847-.318l.529 1.8c-.317.317-.952.635-2.011.635Zm3.175-4.869c0 2.646 1.799 4.869 4.869 4.869 3.069 0 4.975-2.223 4.869-4.869 0-2.646-1.8-4.869-4.869-4.869-3.07 0-4.869 2.223-4.869 4.869Zm4.869 2.646c1.482 0 2.329-1.27 2.329-2.752 0-1.482-.847-2.646-2.329-2.646-1.482 0-2.328 1.27-2.328 2.646 0 1.588.846 2.752 2.328 2.752Zm7.092 2.011h2.434V20.19c.424-.635 1.482-1.058 2.329-1.058.106 0 .211.026.317.053.106.026.212.053.318.053v-2.329c-1.164 0-2.329.635-2.964 1.482v-1.27h-2.434v9.314Z" fill="#FF6436"/></svg>